<svg width="48" height="48" viewBox="0 0 48 48" fill="none" xmlns="http://www.w3.org/2000/svg">
<path d="M13.5 46.5C15.1569 46.5 16.5 45.1569 16.5 43.5C16.5 41.8431 15.1569 40.5 13.5 40.5C11.8431 40.5 10.5 41.8431 10.5 43.5C10.5 45.1569 11.8431 46.5 13.5 46.5Z" stroke="black" stroke-width="3" stroke-linecap="round" stroke-linejoin="round"/>
<path d="M37.5 46.5C39.1569 46.5 40.5 45.1569 40.5 43.5C40.5 41.8431 39.1569 40.5 37.5 40.5C35.8431 40.5 34.5 41.8431 34.5 43.5C34.5 45.1569 35.8431 46.5 37.5 46.5Z" stroke="black" stroke-width="3" stroke-linecap="round" stroke-linejoin="round"/>
<path d="M16.5 43.5H34.5" stroke="black" stroke-width="3" stroke-linecap="round" stroke-linejoin="round"/>
<path d="M40.5 43.5H43.5C44.2956 43.5 45.0587 43.1839 45.6213 42.6213C46.1839 42.0587 46.5 41.2956 46.5 40.5V37.5C46.5 35.9087 45.8679 34.3826 44.7426 33.2574C43.6174 32.1321 42.0913 31.5 40.5 31.5L36.83 24.158C36.5807 23.6596 36.1976 23.2406 35.7235 22.9477C35.2495 22.6549 34.7032 22.4998 34.146 22.5H18.346C17.7888 22.4998 17.2425 22.6549 16.7685 22.9477C16.2944 23.2406 15.9113 23.6596 15.662 24.158L12 31.5H7.5C5.9087 31.5 4.38258 32.1321 3.25736 33.2574C2.13214 34.3826 1.5 35.9087 1.5 37.5V40.5C1.5 41.2956 1.81607 42.0587 2.37868 42.6213C2.94129 43.1839 3.70435 43.5 4.5 43.5H10.5" stroke="black" stroke-width="3" stroke-linecap="round" stroke-linejoin="round"/>
<path d="M12 31.5H40.5" stroke="black" stroke-width="3" stroke-linecap="round" stroke-linejoin="round"/>
<path d="M16.5 13.5C19.8137 13.5 22.5 10.8137 22.5 7.5C22.5 4.18629 19.8137 1.5 16.5 1.5C13.1863 1.5 10.5 4.18629 10.5 7.5C10.5 10.8137 13.1863 13.5 16.5 13.5Z" stroke="black" stroke-width="3" stroke-linecap="round" stroke-linejoin="round"/>
<path d="M22.5 7.5H37.5V12" stroke="black" stroke-width="3" stroke-linecap="round" stroke-linejoin="round"/>
<path d="M31.5 7.5V10.5" stroke="black" stroke-width="3" stroke-linecap="round" stroke-linejoin="round"/>
</svg>
