<svg enable-background="new 0 0 32 32" height="512" viewBox="0 0 32 32" width="512" xmlns="http://www.w3.org/2000/svg"><g id="BG"><path d="m26 32h-20c-3.314 0-6-2.686-6-6v-20c0-3.314 2.686-6 6-6h20c3.314 0 6 2.686 6 6v20c0 3.314-2.686 6-6 6z" fill="#ffe6e2"/></g><g id="Layer_1"><path d="m22 15.5v7c0 .827-.673 1.5-1.5 1.5h-9c-.827 0-1.5-.673-1.5-1.5v-7c0-.827.673-1.5 1.5-1.5h9c.827 0 1.5.673 1.5 1.5z" fill="#fc573b"/><path d="m20 12c0 .367-.3.667-.667.667s-.667-.3-.667-.667c0-1.473-1.193-2.667-2.667-2.667s-2.666 1.194-2.666 2.667v2h-1.333v-2c0-2.207 1.793-4 4-4s4 1.793 4 4z" fill="#fd907e"/></g></svg>