<svg width="48" height="48" viewBox="0 0 48 48" fill="none" xmlns="http://www.w3.org/2000/svg">
<path d="M23.27 30L11.27 19.5L16.82 12.564C16.9614 12.387 17.1409 12.2443 17.3453 12.1466C17.5497 12.049 17.7735 11.9988 18 12H28.558C28.7831 12.0003 29.0053 12.0512 29.2081 12.1488C29.411 12.2464 29.5893 12.3883 29.73 12.564L35.27 19.5L23.27 30Z" stroke="black" stroke-width="3" stroke-linecap="round" stroke-linejoin="round"/>
<path d="M23.27 6V1.5" stroke="black" stroke-width="3" stroke-linecap="round" stroke-linejoin="round"/>
<path d="M38.12 12.15L41.302 8.96802" stroke="black" stroke-width="3" stroke-linecap="round" stroke-linejoin="round"/>
<path d="M8.42199 12.15L5.23999 8.96802" stroke="black" stroke-width="3" stroke-linecap="round" stroke-linejoin="round"/>
<path d="M11.27 19.5H35.27" stroke="black" stroke-width="3" stroke-linecap="round" stroke-linejoin="round"/>
<path d="M23.27 12V30" stroke="black" stroke-width="3" stroke-linecap="round" stroke-linejoin="round"/>
<path d="M4 46.5C4.7169 41.9037 7.05298 37.715 10.5867 34.6897C14.1205 31.6644 18.6191 30.0017 23.271 30.0017C27.9229 30.0017 32.4215 31.6644 35.9553 34.6897C39.489 37.715 41.8251 41.9037 42.542 46.5" stroke="black" stroke-width="3" stroke-linecap="round" stroke-linejoin="round"/>
<path d="M11.6479 46.5001C12.3109 43.9215 13.8126 41.6367 15.9166 40.0052C18.0207 38.3737 20.6075 37.4883 23.27 37.4883C25.9324 37.4883 28.5192 38.3737 30.6233 40.0052C32.7273 41.6367 34.229 43.9215 34.892 46.5001" stroke="black" stroke-width="3" stroke-linecap="round" stroke-linejoin="round"/>
</svg>
