<svg width="48" height="48" viewBox="0 0 48 48" fill="none" xmlns="http://www.w3.org/2000/svg">
<path d="M19.5 27C24.4706 27 28.5 22.9706 28.5 18C28.5 13.0294 24.4706 9 19.5 9C14.5294 9 10.5 13.0294 10.5 18C10.5 22.9706 14.5294 27 19.5 27Z" stroke="#436BD1" stroke-width="3" stroke-linecap="round" stroke-linejoin="round"/>
<path d="M16.5 9.512V1.5H22.5V9.514" stroke="#436BD1" stroke-width="3" stroke-linecap="round" stroke-linejoin="round"/>
<path d="M22.5 1.5H28.5" stroke="#436BD1" stroke-width="3" stroke-linecap="round" stroke-linejoin="round"/>
<path d="M10.5 1.5H16.5" stroke="#436BD1" stroke-width="3" stroke-linecap="round" stroke-linejoin="round"/>
<path d="M44.062 42.188C44.062 43.3316 43.6077 44.4284 42.799 45.237C41.9904 46.0457 40.8936 46.5 39.75 46.5C38.6064 46.5 37.5096 46.0457 36.7009 45.237C35.8923 44.4284 35.438 43.3316 35.438 42.188C35.438 39.806 38.312 35 39.75 35C41.188 35 44.062 39.8 44.062 42.188Z" stroke="#436BD1" stroke-width="3" stroke-linecap="round" stroke-linejoin="round"/>
<path d="M27.2939 13.5H34.4939C36.8809 13.5 39.1701 14.4482 40.8579 16.136C42.5457 17.8239 43.4939 20.1131 43.4939 22.5V28.5H35.9999V25.5C35.9999 24.7044 35.6839 23.9413 35.1213 23.3787C34.5587 22.8161 33.7956 22.5 32.9999 22.5H27.2959" stroke="#436BD1" stroke-width="3" stroke-linecap="round" stroke-linejoin="round"/>
<path d="M11.706 13.5H1.5V22.5H11.706" stroke="#436BD1" stroke-width="3" stroke-linecap="round" stroke-linejoin="round"/>
<path d="M1.5 1.5V34.5" stroke="#436BD1" stroke-width="3" stroke-linecap="round" stroke-linejoin="round"/>
</svg>
