<svg width="48" height="48" viewBox="0 0 48 48" fill="none" xmlns="http://www.w3.org/2000/svg">
<path d="M18 18C18.0002 16.9001 18.3028 15.8214 18.8746 14.8818C19.4465 13.9422 20.2657 13.1778 21.2426 12.6723C22.2195 12.1668 23.3165 11.9396 24.4139 12.0155C25.5112 12.0913 26.5665 12.4674 27.4646 13.1025C28.3626 13.7377 29.0688 14.6074 29.5059 15.6168C29.943 16.6262 30.0942 17.7363 29.9431 18.8258C29.7919 19.9153 29.3441 20.9423 28.6487 21.7945C27.9533 22.6467 27.037 23.2914 26 23.658C25.4148 23.8649 24.9083 24.2482 24.5501 24.755C24.1919 25.2619 23.9997 25.8674 24 26.488V28.5" stroke="black" stroke-width="3" stroke-linecap="round" stroke-linejoin="round"/>
<path d="M24 32.5C23.4561 32.5 22.9244 32.6613 22.4722 32.9635C22.0199 33.2656 21.6675 33.6951 21.4593 34.1976C21.2512 34.7001 21.1967 35.253 21.3028 35.7865C21.409 36.3199 21.6709 36.81 22.0555 37.1945C22.44 37.5791 22.93 37.841 23.4635 37.9472C23.9969 38.0533 24.5499 37.9988 25.0524 37.7907C25.5549 37.5825 25.9844 37.2301 26.2865 36.7778C26.5887 36.3256 26.75 35.7939 26.75 35.25C26.75 34.5207 26.4603 33.8212 25.9445 33.3055C25.4288 32.7897 24.7293 32.5 24 32.5Z" fill="black"/>
<path d="M24 46.5C36.4264 46.5 46.5 36.4264 46.5 24C46.5 11.5736 36.4264 1.5 24 1.5C11.5736 1.5 1.5 11.5736 1.5 24C1.5 36.4264 11.5736 46.5 24 46.5Z" stroke="black" stroke-width="3" stroke-miterlimit="10"/>
</svg>
