<svg width="48" height="48" viewBox="0 0 48 48" fill="none" xmlns="http://www.w3.org/2000/svg">
<path d="M1.80798 1.5V46.5" stroke="black" stroke-width="3" stroke-linecap="round" stroke-linejoin="round"/>
<path d="M28.8 10.5C28.0044 10.5 27.2413 10.8161 26.6787 11.3787C26.1161 11.9413 25.8 12.7044 25.8 13.5V22.5C25.8 23.2956 26.1161 24.0587 26.6787 24.6213C27.2413 25.1839 28.0044 25.5 28.8 25.5C29.5957 25.5 30.3588 25.1839 30.9214 24.6213C31.484 24.0587 31.8 23.2956 31.8 22.5V13.5C31.8 12.7044 31.484 11.9413 30.9214 11.3787C30.3588 10.8161 29.5957 10.5 28.8 10.5V10.5Z" stroke="black" stroke-width="3" stroke-linecap="round" stroke-linejoin="round"/>
<path d="M18.308 19.5H19.8V22.5C19.8 23.2956 19.484 24.0587 18.9214 24.6213C18.3588 25.1839 17.5957 25.5 16.8 25.5C16.0044 25.5 15.2413 25.1839 14.6787 24.6213C14.1161 24.0587 13.8 23.2956 13.8 22.5V13.5C13.8 12.7044 14.1161 11.9413 14.6787 11.3787C15.2413 10.8161 16.0044 10.5 16.8 10.5H19.8" stroke="black" stroke-width="3" stroke-linecap="round" stroke-linejoin="round"/>
<path d="M1.79999 4.5H44.5C44.7488 4.50028 44.9937 4.56256 45.2124 4.68119C45.4312 4.79983 45.6169 4.97109 45.7529 5.17951C45.8889 5.38792 45.9708 5.62693 45.9912 5.87494C46.0117 6.12294 45.97 6.37213 45.87 6.6L41.078 17.4C40.9929 17.5918 40.949 17.7992 40.949 18.009C40.949 18.2188 40.9929 18.4262 41.078 18.618L45.878 29.4C45.9796 29.6284 46.0226 29.8785 46.003 30.1277C45.9834 30.3769 45.9018 30.6172 45.7657 30.8269C45.6296 31.0365 45.4432 31.2088 45.2236 31.3281C45.0039 31.4474 44.7579 31.5099 44.508 31.51H1.79999" stroke="black" stroke-width="3" stroke-linecap="round" stroke-linejoin="round"/>
</svg>
