<svg width="90" height="103" viewBox="0 0 90 103" fill="none" xmlns="http://www.w3.org/2000/svg">
<path d="M71.7124 103C70.6025 103 69.524 102.631 68.6471 101.95L11.9347 57.9415C10.7142 56.9944 10 55.5363 10 53.9914V28C10 25.2386 12.2386 23 15 23H28.2876C29.3975 23 30.476 23.3693 31.3529 24.0498L88.0653 68.0585C89.2858 69.0056 90 70.4637 90 72.0086V98C90 100.761 87.7614 103 85 103H71.7124Z" fill="url(#paint0_linear)"/>
<g filter="url(#filter0_d)">
<path d="M10 20.8397C10 19.672 10.5103 18.5626 11.3968 17.8027L24.8968 6.23128C26.3948 4.94732 28.6052 4.94732 30.1032 6.23128L43.6032 17.8027C44.4897 18.5626 45 19.672 45 20.8397V54C45 56.2091 43.2091 58 41 58H14C11.7909 58 10 56.2091 10 54V20.8397Z" fill="#FF5858"/>
</g>
<path d="M11.3968 17.8027C10.5103 18.5626 10 19.672 10 20.8397V43.3397C10 42.172 10.5103 41.0626 11.3968 40.3027L24.8968 28.7313C26.3948 27.4473 28.6052 27.4473 30.1032 28.7313L43.6032 40.3027C44.4898 41.0626 45 42.172 45 43.3397V20.8397C45 19.672 44.4898 18.5626 43.6032 17.8027L30.1032 6.23129C28.6052 4.94732 26.3948 4.94732 24.8968 6.23128L11.3968 17.8027Z" fill="url(#paint1_linear)"/>
<path d="M10 43.3397C10 42.172 10.5103 41.0626 11.3968 40.3027L24.8968 28.7313C26.3948 27.4473 28.6052 27.4473 30.1032 28.7313L43.6032 40.3027C44.4897 41.0626 45 42.172 45 43.3397V54C45 56.2091 43.2091 58 41 58H14C11.7909 58 10 56.2091 10 54V43.3397Z" fill="url(#paint2_linear)"/>
<defs>
<filter id="filter0_d" x="0" y="0.268311" width="55" height="72.7317" filterUnits="userSpaceOnUse" color-interpolation-filters="sRGB">
<feFlood flood-opacity="0" result="BackgroundImageFix"/>
<feColorMatrix in="SourceAlpha" type="matrix" values="0 0 0 0 0 0 0 0 0 0 0 0 0 0 0 0 0 0 127 0"/>
<feOffset dy="5"/>
<feGaussianBlur stdDeviation="5"/>
<feColorMatrix type="matrix" values="0 0 0 0 0.109804 0 0 0 0 0.141176 0 0 0 0 0.168627 0 0 0 0.2 0"/>
<feBlend mode="normal" in2="BackgroundImageFix" result="effect1_dropShadow"/>
<feBlend mode="normal" in="SourceGraphic" in2="effect1_dropShadow" result="shape"/>
</filter>
<linearGradient id="paint0_linear" x1="39.2473" y1="53.7389" x2="64.1595" y2="78.7702" gradientUnits="userSpaceOnUse">
<stop stop-opacity="0.2"/>
<stop offset="1" stop-opacity="0"/>
</linearGradient>
<linearGradient id="paint1_linear" x1="29.8333" y1="16" x2="24" y2="16" gradientUnits="userSpaceOnUse">
<stop stop-opacity="0.4"/>
<stop offset="1" stop-opacity="0"/>
</linearGradient>
<linearGradient id="paint2_linear" x1="10" y1="27" x2="45" y2="66" gradientUnits="userSpaceOnUse">
<stop stop-opacity="0.31"/>
<stop offset="1" stop-opacity="0"/>
</linearGradient>
</defs>
</svg>
